<?xml version="1.0" encoding="UTF-8"?>
<svg xmlns="http://www.w3.org/2000/svg" xmlns:xlink="http://www.w3.org/1999/xlink" width="198px" height="45px" viewBox="0 0 198 45" version="1.1">
<g id="surface1">
<path style=" stroke:none;fill-rule:evenodd;fill:rgb(9.411765%,15.686275%,23.529412%);fill-opacity:1;" d="M 3.972656 30.113281 C 4.152344 32.046875 4.625 33.785156 5.507812 35.3125 C 6.511719 37.132812 7.988281 38.554688 9.820312 39.578125 C 11.652344 40.601562 13.71875 41.113281 16.140625 41.113281 C 17.96875 41.113281 19.683594 40.773438 21.335938 40.089844 C 22.929688 39.414062 24.289062 38.367188 25.46875 36.96875 L 27.773438 39.730469 C 26.472656 41.414062 24.761719 42.695312 22.695312 43.574219 C 20.6875 44.457031 18.441406 44.898438 16.019531 44.898438 C 12.832031 44.898438 9.996094 44.207031 7.636719 42.824219 C 5.214844 41.445312 3.324219 39.542969 1.964844 37.117188 C 0.609375 34.6875 -0.0429688 31.917969 -0.0429688 28.789062 C -0.0429688 25.667969 0.609375 22.902344 1.90625 20.496094 C 3.207031 18.09375 4.976562 16.199219 7.222656 14.820312 C 9.523438 13.433594 12.0625 12.742188 14.898438 12.742188 C 17.734375 12.742188 20.332031 13.414062 22.515625 14.757812 C 24.761719 16.097656 26.53125 17.984375 27.773438 20.402344 C 29.070312 22.828125 29.722656 25.625 29.722656 28.789062 C 29.722656 28.992188 29.722656 29.203125 29.664062 29.425781 C 29.664062 29.640625 29.664062 29.875 29.664062 30.113281 Z M 4.03125 26.929688 L 25.765625 26.929688 C 25.648438 25.152344 25.175781 23.539062 24.40625 22.089844 C 23.460938 20.304688 22.164062 18.914062 20.507812 17.910156 C 18.914062 16.914062 17.023438 16.40625 14.898438 16.40625 C 12.773438 16.40625 10.941406 16.914062 9.230469 17.910156 C 7.574219 18.914062 6.277344 20.316406 5.332031 22.121094 C 4.625 23.554688 4.152344 25.15625 4.03125 26.929688 Z M 35.097656 44.597656 L 43.71875 0.00390625 L 47.851562 0.00390625 L 39.230469 44.597656 Z M 50.746094 44.597656 L 59.367188 0.00390625 L 63.5 0.00390625 L 54.878906 44.597656 Z M 70.410156 30.113281 C 70.527344 32.046875 71.0625 33.785156 71.886719 35.3125 C 72.949219 37.132812 74.367188 38.554688 76.199219 39.578125 C 78.027344 40.601562 80.15625 41.113281 82.515625 41.113281 C 84.347656 41.113281 86.121094 40.773438 87.714844 40.089844 C 89.308594 39.414062 90.726562 38.367188 91.90625 36.96875 L 94.210938 39.730469 C 92.851562 41.414062 91.140625 42.695312 89.132812 43.574219 C 87.066406 44.457031 84.820312 44.898438 82.398438 44.898438 C 79.210938 44.898438 76.433594 44.207031 74.011719 42.824219 C 71.652344 41.445312 69.761719 39.542969 68.402344 37.117188 C 67.042969 34.6875 66.335938 31.917969 66.335938 28.789062 C 66.335938 25.667969 66.984375 22.902344 68.285156 20.496094 C 69.585938 18.09375 71.355469 16.199219 73.660156 14.820312 C 75.902344 13.433594 78.441406 12.742188 81.277344 12.742188 C 84.171875 12.742188 86.710938 13.414062 88.953125 14.757812 C 91.199219 16.097656 92.910156 17.984375 94.210938 20.402344 C 95.449219 22.828125 96.101562 25.625 96.101562 28.789062 C 96.101562 28.992188 96.101562 29.203125 96.101562 29.425781 C 96.101562 29.640625 96.042969 29.875 96.042969 30.113281 Z M 70.410156 26.929688 L 92.203125 26.929688 C 92.023438 25.152344 91.554688 23.539062 90.785156 22.089844 C 89.839844 20.304688 88.539062 18.914062 86.945312 17.910156 C 85.292969 16.914062 83.402344 16.40625 81.277344 16.40625 C 79.210938 16.40625 77.320312 16.914062 75.667969 17.910156 C 74.011719 18.914062 72.714844 20.316406 71.769531 22.121094 C 71 23.554688 70.589844 25.15625 70.410156 26.929688 Z M 113.992188 39.9375 L 125.628906 13.046875 L 129.703125 13.046875 L 116.0625 44.597656 L 111.808594 44.597656 L 98.285156 13.046875 L 102.597656 13.046875 Z M 135.609375 30.113281 C 135.726562 32.046875 136.257812 33.785156 137.085938 35.3125 C 138.148438 37.132812 139.566406 38.554688 141.394531 39.578125 C 143.226562 40.601562 145.351562 41.113281 147.714844 41.113281 C 149.546875 41.113281 151.316406 40.773438 152.910156 40.089844 C 154.507812 39.414062 155.921875 38.367188 157.046875 36.96875 L 159.40625 39.730469 C 158.050781 41.414062 156.335938 42.695312 154.328125 43.574219 C 152.261719 44.457031 150.019531 44.898438 147.597656 44.898438 C 144.40625 44.898438 141.632812 44.207031 139.210938 42.824219 C 136.789062 41.445312 134.957031 39.542969 133.601562 37.117188 C 132.242188 34.6875 131.535156 31.917969 131.535156 28.789062 C 131.535156 25.667969 132.183594 22.902344 133.480469 20.496094 C 134.78125 18.09375 136.554688 16.199219 138.855469 14.820312 C 141.101562 13.433594 143.640625 12.742188 146.472656 12.742188 C 149.367188 12.742188 151.90625 13.414062 154.152344 14.757812 C 156.394531 16.097656 158.109375 17.984375 159.40625 20.402344 C 160.648438 22.828125 161.296875 25.625 161.296875 28.789062 C 161.296875 28.992188 161.296875 29.203125 161.296875 29.425781 C 161.296875 29.640625 161.238281 29.875 161.238281 30.113281 Z M 135.609375 26.929688 L 157.398438 26.929688 C 157.222656 25.152344 156.75 23.539062 155.980469 22.089844 C 155.039062 20.304688 153.738281 18.914062 152.144531 17.910156 C 150.488281 16.914062 148.601562 16.40625 146.472656 16.40625 C 144.40625 16.40625 142.519531 16.914062 140.863281 17.910156 C 139.210938 18.914062 137.910156 20.316406 136.964844 22.121094 C 136.199219 23.554688 135.785156 25.15625 135.609375 26.929688 Z M 173.699219 18.785156 C 174.644531 17.101562 176.003906 15.742188 177.714844 14.695312 C 179.839844 13.394531 182.378906 12.742188 185.332031 12.742188 C 187.8125 12.742188 190 13.234375 191.886719 14.214844 C 193.777344 15.199219 195.253906 16.691406 196.316406 18.691406 C 197.378906 20.699219 197.910156 23.222656 197.910156 26.265625 L 197.910156 44.597656 L 193.777344 44.597656 L 193.777344 26.683594 C 193.777344 23.359375 192.949219 20.847656 191.355469 19.148438 C 189.761719 17.441406 187.457031 16.59375 184.566406 16.59375 C 182.378906 16.59375 180.492188 17.042969 178.894531 17.941406 C 177.300781 18.847656 176.0625 20.144531 175.175781 21.851562 C 174.289062 23.550781 173.875 25.605469 173.875 28.007812 L 173.875 44.597656 L 169.742188 44.597656 L 169.742188 13.046875 L 173.699219 13.046875 Z M 173.699219 18.785156 "/>
</g>
</svg>
