<?xml version="1.0" encoding="UTF-8"?>
<svg xmlns="http://www.w3.org/2000/svg" xmlns:xlink="http://www.w3.org/1999/xlink" width="198px" height="45px" viewBox="0 0 200 45" version="1.1">
<defs>
<clipPath id="clip1">
  <path d="M 2.394531 13 L 32 13 L 32 43.75 L 2.394531 43.75 Z M 2.394531 13 "/>
</clipPath>
<clipPath id="clip2">
  <path d="M 37 1.25 L 50 1.25 L 50 43.75 L 37 43.75 Z M 37 1.25 "/>
</clipPath>
<clipPath id="clip3">
  <path d="M 52 1.25 L 66 1.25 L 66 43.75 L 52 43.75 Z M 52 1.25 "/>
</clipPath>
<clipPath id="clip4">
  <path d="M 67 13 L 98 13 L 98 43.75 L 67 43.75 Z M 67 13 "/>
</clipPath>
<clipPath id="clip5">
  <path d="M 99 13 L 131 13 L 131 43.75 L 99 43.75 Z M 99 13 "/>
</clipPath>
<clipPath id="clip6">
  <path d="M 132 13 L 162 13 L 162 43.75 L 132 43.75 Z M 132 13 "/>
</clipPath>
<clipPath id="clip7">
  <path d="M 170 13 L 197.894531 13 L 197.894531 43.75 L 170 43.75 Z M 170 13 "/>
</clipPath>
</defs>
<g id="surface1">
<g clip-path="url(#clip1)" clip-rule="nonzero">
<path style=" stroke:none;fill-rule:nonzero;fill:rgb(100%,100%,100%);fill-opacity:1;" d="M 18.304688 43.648438 C 15.15625 43.648438 12.355469 43 10.023438 41.691406 C 7.632812 40.386719 5.769531 38.589844 4.425781 36.300781 C 3.085938 34.007812 2.445312 31.390625 2.445312 28.4375 C 2.445312 25.488281 3.085938 22.875 4.367188 20.601562 C 5.648438 18.335938 7.402344 16.542969 9.617188 15.242188 C 11.890625 13.933594 14.398438 13.28125 17.195312 13.28125 C 19.996094 13.28125 22.5625 13.914062 24.71875 15.183594 C 26.933594 16.449219 28.683594 18.230469 29.910156 20.515625 C 31.191406 22.808594 31.832031 25.449219 31.832031 28.4375 C 31.832031 28.628906 31.832031 28.824219 31.773438 29.035156 C 31.773438 29.238281 31.773438 29.460938 31.773438 29.6875 L 5.535156 29.6875 L 5.535156 26.679688 L 29.617188 26.679688 L 27.984375 27.871094 C 27.984375 25.714844 27.515625 23.789062 26.582031 22.109375 C 25.648438 20.421875 24.371094 19.109375 22.738281 18.160156 C 21.164062 17.21875 19.296875 16.742188 17.195312 16.742188 C 15.097656 16.742188 13.289062 17.21875 11.597656 18.160156 C 9.964844 19.109375 8.683594 20.433594 7.75 22.136719 C 6.875 23.835938 6.410156 25.789062 6.410156 27.984375 L 6.410156 28.605469 C 6.410156 30.878906 6.875 32.875 7.925781 34.59375 C 8.917969 36.316406 10.375 37.660156 12.183594 38.625 C 13.988281 39.589844 16.03125 40.074219 18.421875 40.074219 C 20.226562 40.074219 21.917969 39.753906 23.550781 39.109375 C 25.125 38.46875 26.46875 37.480469 27.632812 36.160156 L 29.910156 38.769531 C 28.625 40.359375 26.933594 41.566406 24.890625 42.398438 C 22.910156 43.230469 20.695312 43.648438 18.304688 43.648438 Z M 18.304688 43.648438 "/>
</g>
<g clip-path="url(#clip2)" clip-rule="nonzero">
<path style=" stroke:none;fill-rule:nonzero;fill:rgb(100%,100%,100%);fill-opacity:1;" d="M 37.140625 43.367188 L 45.652344 1.25 L 49.734375 1.25 L 41.222656 43.367188 Z M 37.140625 43.367188 "/>
</g>
<g clip-path="url(#clip3)" clip-rule="nonzero">
<path style=" stroke:none;fill-rule:nonzero;fill:rgb(100%,100%,100%);fill-opacity:1;" d="M 52.589844 43.367188 L 61.101562 1.25 L 65.1875 1.25 L 56.671875 43.367188 Z M 52.589844 43.367188 "/>
</g>
<g clip-path="url(#clip4)" clip-rule="nonzero">
<path style=" stroke:none;fill-rule:nonzero;fill:rgb(100%,100%,100%);fill-opacity:1;" d="M 83.84375 43.648438 C 80.695312 43.648438 77.957031 43 75.566406 41.691406 C 73.234375 40.386719 71.367188 38.589844 70.027344 36.300781 C 68.683594 34.007812 67.984375 31.390625 67.984375 28.4375 C 67.984375 25.488281 68.625 22.875 69.910156 20.601562 C 71.191406 18.335938 72.941406 16.542969 75.214844 15.242188 C 77.429688 13.933594 79.9375 13.28125 82.738281 13.28125 C 85.59375 13.28125 88.101562 13.914062 90.316406 15.183594 C 92.53125 16.449219 94.226562 18.230469 95.507812 20.515625 C 96.730469 22.808594 97.371094 25.449219 97.371094 28.4375 C 97.371094 28.628906 97.371094 28.824219 97.371094 29.035156 C 97.371094 29.238281 97.316406 29.460938 97.316406 29.6875 L 71.074219 29.6875 L 71.074219 26.679688 L 95.15625 26.679688 L 93.523438 27.871094 C 93.523438 25.714844 93.058594 23.789062 92.125 22.109375 C 91.191406 20.421875 89.910156 19.109375 88.335938 18.160156 C 86.703125 17.21875 84.835938 16.742188 82.738281 16.742188 C 80.695312 16.742188 78.828125 17.21875 77.199219 18.160156 C 75.566406 19.109375 74.28125 20.433594 73.347656 22.136719 C 72.414062 23.835938 71.949219 25.789062 71.949219 27.984375 L 71.949219 28.605469 C 71.949219 30.878906 72.472656 32.875 73.464844 34.59375 C 74.515625 36.316406 75.914062 37.660156 77.722656 38.625 C 79.527344 39.589844 81.628906 40.074219 83.960938 40.074219 C 85.769531 40.074219 87.519531 39.753906 89.09375 39.109375 C 90.667969 38.46875 92.066406 37.480469 93.234375 36.160156 L 95.507812 38.769531 C 94.167969 40.359375 92.472656 41.566406 90.492188 42.398438 C 88.449219 43.230469 86.234375 43.648438 83.84375 43.648438 Z M 83.84375 43.648438 "/>
</g>
<g clip-path="url(#clip5)" clip-rule="nonzero">
<path style=" stroke:none;fill-rule:nonzero;fill:rgb(100%,100%,100%);fill-opacity:1;" d="M 112.886719 43.363281 L 99.53125 13.5625 L 103.789062 13.5625 L 116.035156 41.207031 L 114.050781 41.207031 L 126.53125 13.5625 L 130.554688 13.5625 L 117.082031 43.363281 Z M 112.886719 43.363281 "/>
</g>
<g clip-path="url(#clip6)" clip-rule="nonzero">
<path style=" stroke:none;fill-rule:nonzero;fill:rgb(100%,100%,100%);fill-opacity:1;" d="M 148.222656 43.648438 C 145.074219 43.648438 142.332031 43 139.941406 41.691406 C 137.550781 40.386719 135.742188 38.589844 134.402344 36.300781 C 133.0625 34.007812 132.359375 31.390625 132.359375 28.4375 C 132.359375 25.488281 133.003906 22.875 134.285156 20.601562 C 135.566406 18.335938 137.320312 16.542969 139.59375 15.242188 C 141.808594 13.933594 144.3125 13.28125 147.113281 13.28125 C 149.96875 13.28125 152.476562 13.914062 154.695312 15.183594 C 156.910156 16.449219 158.601562 18.230469 159.882812 20.515625 C 161.109375 22.808594 161.75 25.449219 161.75 28.4375 C 161.75 28.628906 161.75 28.824219 161.75 29.035156 C 161.75 29.238281 161.691406 29.460938 161.691406 29.6875 L 135.449219 29.6875 L 135.449219 26.679688 L 159.535156 26.679688 L 157.898438 27.871094 C 157.898438 25.714844 157.433594 23.789062 156.503906 22.109375 C 155.570312 20.421875 154.285156 19.109375 152.710938 18.160156 C 151.078125 17.21875 149.210938 16.742188 147.113281 16.742188 C 145.070312 16.742188 143.207031 17.21875 141.574219 18.160156 C 139.941406 19.109375 138.65625 20.433594 137.726562 22.136719 C 136.792969 23.835938 136.328125 25.789062 136.328125 27.984375 L 136.328125 28.605469 C 136.328125 30.878906 136.851562 32.875 137.839844 34.59375 C 138.890625 36.316406 140.289062 37.660156 142.097656 38.625 C 143.90625 39.589844 146.007812 40.074219 148.339844 40.074219 C 150.148438 40.074219 151.894531 39.753906 153.46875 39.109375 C 155.042969 38.46875 156.441406 37.480469 157.550781 36.160156 L 159.882812 38.769531 C 158.542969 40.359375 156.851562 41.566406 154.867188 42.398438 C 152.828125 43.230469 150.613281 43.648438 148.222656 43.648438 Z M 148.222656 43.648438 "/>
</g>
<g clip-path="url(#clip7)" clip-rule="nonzero">
<path style=" stroke:none;fill-rule:nonzero;fill:rgb(100%,100%,100%);fill-opacity:1;" d="M 185.476562 13.28125 C 187.925781 13.28125 190.085938 13.746094 191.953125 14.671875 C 193.820312 15.601562 195.277344 17.007812 196.324219 18.898438 C 197.375 20.792969 197.902344 23.179688 197.902344 26.050781 L 197.902344 43.363281 L 193.816406 43.363281 L 193.816406 26.449219 C 193.816406 23.308594 193 20.933594 191.425781 19.328125 C 189.851562 17.71875 187.578125 16.914062 184.722656 16.914062 C 182.5625 16.914062 180.699219 17.339844 179.125 18.191406 C 177.550781 19.042969 176.324219 20.273438 175.449219 21.882812 C 174.574219 23.488281 174.167969 25.429688 174.167969 27.699219 L 174.167969 43.363281 L 170.085938 43.363281 L 170.085938 13.566406 L 173.992188 13.566406 L 173.992188 21.738281 L 173.347656 20.207031 C 174.339844 18.050781 175.855469 16.359375 177.957031 15.125 C 180.054688 13.898438 182.5625 13.28125 185.476562 13.28125 Z M 185.476562 13.28125 "/>
</g>
</g>
</svg>
